<svg id="visual" viewBox="0 0 1200 600" width="1200" height="600" xmlns="http://www.w3.org/2000/svg" xmlns:xlink="http://www.w3.org/1999/xlink" version="1.1"><rect width="1200" height="600" fill="#25282a"></rect><g><g transform="translate(176 232)"><path d="M0 -152.9L132.4 -76.5L132.4 76.5L0 152.9L-132.4 76.5L-132.4 -76.5Z" fill="#303434"></path></g><g transform="translate(951 167)"><path d="M0 -101L87.5 -50.5L87.5 50.5L0 101L-87.5 50.5L-87.5 -50.5Z" fill="#303434"></path></g><g transform="translate(746 493)"><path d="M0 -126L109.1 -63L109.1 63L0 126L-109.1 63L-109.1 -63Z" fill="#303434"></path></g><g transform="translate(557 127)"><path d="M0 -148L128.2 -74L128.2 74L0 148L-128.2 74L-128.2 -74Z" fill="#303434"></path></g><g transform="translate(1122 562)"><path d="M0 -98L84.9 -49L84.9 49L0 98L-84.9 49L-84.9 -49Z" fill="#303434"></path></g></g></svg>